<?xml version="1.0" standalone="no"?>
<!DOCTYPE svg PUBLIC "-//W3C//DTD SVG 20010904//EN"
 "http://www.w3.org/TR/2001/REC-SVG-20010904/DTD/svg10.dtd">
<svg version="1.0" xmlns="http://www.w3.org/2000/svg"
 width="1385.000000pt" height="1385.000000pt" viewBox="0 0 1385.000000 1385.000000"
 preserveAspectRatio="xMidYMid meet">
<metadata>
Created by potrace 1.11, written by Peter Selinger 2001-2013
</metadata>
<g transform="translate(0.000000,1385.000000) scale(0.100000,-0.100000)"
fill="#000000" stroke="none">
<path d="M6618 13845 c-2 -1 -50 -5 -108 -9 -170 -9 -306 -22 -535 -52 -51 -6
-229 -34 -250 -39 -5 -1 -28 -5 -50 -9 -32 -6 -138 -28 -298 -61 -36 -8 -303
-76 -332 -85 -16 -5 -84 -26 -150 -46 -210 -63 -528 -178 -662 -240 -28 -13
-54 -24 -57 -24 -16 0 -471 -222 -576 -281 -640 -360 -1093 -702 -1575 -1184
-210 -211 -325 -339 -503 -560 -40 -49 -78 -97 -85 -105 -7 -8 -23 -31 -37
-50 -13 -19 -27 -37 -30 -40 -12 -10 -171 -240 -252 -365 -168 -256 -383 -649
-495 -900 -17 -38 -41 -92 -53 -120 -64 -143 -188 -475 -245 -655 -72 -227
-161 -573 -190 -741 -3 -18 -7 -35 -9 -38 -2 -3 -7 -26 -10 -51 -3 -25 -8 -56
-11 -70 -8 -38 -53 -339 -59 -395 -6 -60 -14 -138 -21 -202 -14 -147 -20 -312
-19 -603 0 -292 3 -398 19 -580 18 -200 19 -209 59 -490 5 -35 25 -150 31
-180 3 -14 9 -47 14 -75 68 -362 211 -853 348 -1195 46 -116 104 -254 130
-310 33 -72 208 -428 227 -460 44 -77 97 -171 121 -215 15 -27 34 -57 41 -66
8 -8 14 -19 14 -24 0 -4 11 -23 25 -41 14 -18 25 -35 25 -39 0 -5 157 -240
227 -340 67 -96 184 -248 274 -360 195 -240 490 -550 709 -745 52 -47 97 -87
100 -90 3 -3 34 -30 70 -60 36 -30 67 -57 70 -60 10 -12 199 -159 280 -218 47
-35 92 -68 100 -75 81 -66 403 -271 620 -395 143 -81 535 -282 552 -282 4 0
39 -15 80 -34 235 -109 750 -291 961 -341 10 -2 51 -13 91 -24 40 -11 83 -22
97 -24 13 -3 62 -14 109 -25 152 -37 341 -73 460 -88 19 -2 42 -6 50 -9 8 -2
40 -7 70 -10 30 -3 66 -8 80 -10 25 -5 63 -9 180 -20 36 -3 81 -8 100 -10 151
-19 826 -27 1020 -12 125 10 229 18 260 22 14 2 54 6 90 10 62 6 412 58 475
70 17 4 64 13 105 21 41 8 86 17 100 20 14 3 33 7 42 10 9 3 25 6 35 8 66 13
360 92 473 126 378 116 683 237 1035 411 350 172 628 335 928 546 88 61 360
266 377 283 7 7 66 57 125 105 204 167 519 478 734 725 111 127 120 138 161
190 19 25 37 47 40 50 15 13 176 228 261 350 86 121 299 454 299 465 0 3 13
26 29 52 90 148 283 534 371 743 155 368 331 917 384 1200 2 14 11 57 20 95
23 104 63 334 81 470 8 66 17 134 20 150 2 17 7 64 10 105 3 41 8 89 10 105
13 99 19 299 19 575 1 352 -7 498 -40 795 -24 221 -71 500 -119 710 -14 61
-27 119 -29 130 -18 91 -149 539 -175 600 -5 11 -21 56 -36 100 -41 120 -160
414 -225 555 -297 648 -702 1257 -1200 1805 -110 122 -394 397 -532 518 -240
208 -481 394 -693 533 -49 32 -91 62 -93 67 -2 4 -9 7 -15 7 -6 0 -18 6 -26
14 -16 14 -209 132 -291 178 -25 14 -63 36 -85 48 -174 101 -545 276 -790 375
-219 88 -647 231 -749 251 -12 2 -43 10 -71 18 -27 8 -80 22 -117 31 -38 8
-96 22 -130 30 -193 44 -397 80 -639 110 -166 21 -192 23 -279 30 -41 3 -100
8 -130 11 -59 5 -757 14 -762 9z"/>
</g>
</svg>
