<?xml version="1.0" standalone="no"?>
<!DOCTYPE svg PUBLIC "-//W3C//DTD SVG 20010904//EN"
 "http://www.w3.org/TR/2001/REC-SVG-20010904/DTD/svg10.dtd">
<svg version="1.0" xmlns="http://www.w3.org/2000/svg"
 width="512.000000pt" height="512.000000pt" viewBox="0 0 512.000000 512.000000"
 preserveAspectRatio="xMidYMid meet">
<metadata>
Created by potrace 1.14, written by Peter Selinger 2001-2017
</metadata>
<g transform="translate(0.000000,512.000000) scale(0.100000,-0.100000)"
fill="#000000" stroke="none">
<path d="M1552 3809 c-684 -496 -958 -701 -969 -723 -9 -17 -16 -49 -16 -71
-1 -26 125 -427 359 -1144 389 -1198 370 -1148 452 -1171 24 -6 430 -10 1191
-10 1154 0 1155 0 1198 21 29 14 50 33 62 58 10 20 179 530 375 1135 383 1180
370 1130 322 1196 -11 17 -444 337 -961 712 l-940 682 -60 4 -60 4 -953 -693z
m1323 -320 c66 -5 165 -19 220 -30 93 -19 237 -61 262 -77 11 -8 -62 -439 -78
-456 -5 -5 -71 10 -161 37 -197 59 -239 67 -379 74 -197 10 -338 -22 -394 -89
-72 -85 -28 -176 123 -256 31 -17 138 -58 237 -92 377 -129 501 -193 615 -316
102 -111 140 -213 140 -374 0 -339 -206 -539 -635 -616 -141 -25 -500 -26
-635 -1 -91 17 -335 93 -431 135 l-47 20 14 74 c8 40 26 141 41 223 14 83 28
152 29 154 2 2 54 -15 116 -37 322 -115 481 -142 723 -123 156 12 208 26 251
66 29 28 34 39 34 79 0 125 -73 172 -458 296 -338 109 -494 195 -596 330 -69
92 -88 153 -94 295 -3 91 0 136 12 185 44 173 159 311 326 394 199 98 450 133
765 105z"/>
</g>
</svg>
