<?xml version="1.0" standalone="no"?>
<!DOCTYPE svg PUBLIC "-//W3C//DTD SVG 20010904//EN"
 "http://www.w3.org/TR/2001/REC-SVG-20010904/DTD/svg10.dtd">
<svg version="1.0" xmlns="http://www.w3.org/2000/svg"
 width="512.000000pt" height="512.000000pt" viewBox="0 0 512.000000 512.000000"
 preserveAspectRatio="xMidYMid meet">
<metadata>
Created by potrace 1.14, written by Peter Selinger 2001-2017
</metadata>
<g transform="translate(0.000000,512.000000) scale(0.100000,-0.100000)"
fill="#000000" stroke="none">
<path d="M2492 4478 c-73 -41 -1881 -1361 -1898 -1386 -39 -59 -44 -40 331
-1197 196 -605 364 -1113 373 -1129 10 -16 33 -37 52 -47 33 -18 83 -19 1210
-19 1127 0 1177 1 1210 19 19 10 42 31 52 47 9 16 118 344 243 729 125 385
285 880 357 1099 139 426 143 449 101 503 -24 31 -1894 1388 -1924 1396 -41
11 -64 8 -107 -15z m475 -993 c158 -21 383 -80 398 -106 5 -8 -72 -459 -80
-467 -2 -2 -77 19 -168 46 -210 64 -287 75 -479 69 -177 -5 -216 -15 -275 -73
-39 -37 -43 -45 -43 -89 0 -45 4 -52 49 -96 65 -62 153 -103 406 -190 244 -82
324 -117 426 -186 181 -123 263 -271 263 -478 1 -55 -5 -125 -13 -155 -60
-247 -254 -396 -606 -467 -115 -23 -537 -26 -655 -4 -79 14 -272 73 -404 123
-74 29 -78 32 -73 57 3 14 22 120 43 234 32 177 40 207 53 201 73 -30 316
-111 401 -132 97 -25 121 -27 310 -27 236 0 303 11 355 57 59 51 56 135 -7
199 -49 48 -135 86 -402 173 -266 88 -347 121 -444 186 -78 52 -173 154 -206
222 -96 196 -63 468 80 642 104 129 299 225 524 261 119 18 403 18 547 0z"/>
</g>
</svg>
